<?xml version="1.0" encoding="UTF-8" ?>
<!DOCTYPE svg PUBLIC "-//W3C//DTD SVG 1.1//EN" "http://www.w3.org/Graphics/SVG/1.1/DTD/svg11.dtd">
<svg width="615pt" height="348pt" viewBox="0 0 615 348" version="1.1" xmlns="http://www.w3.org/2000/svg">
<path fill="#ffffff" d=" M 0.00 0.00 L 615.00 0.00 L 615.00 348.00 L 0.00 348.00 L 0.00 0.00 Z" />
<path fill="#000000" d=" M 318.36 47.11 C 320.43 45.54 322.50 47.69 323.94 49.09 C 332.62 58.10 340.77 67.61 349.23 76.82 C 365.67 95.34 382.31 113.67 398.49 132.40 C 400.19 133.98 401.24 137.39 398.62 138.65 C 385.39 148.24 371.45 156.81 357.80 165.80 C 346.03 173.39 334.31 181.08 322.38 188.42 C 320.52 190.10 318.51 188.10 316.80 187.26 C 299.05 176.54 281.84 164.96 264.59 153.46 C 257.02 148.25 249.21 143.33 242.05 137.56 C 241.04 134.92 243.20 132.69 244.74 130.82 C 266.71 105.12 289.03 79.74 311.34 54.34 C 313.63 51.89 315.75 49.24 318.36 47.11 Z" />
<path fill="#ffffff" d=" M 287.83 93.94 C 298.03 82.55 307.80 70.75 318.21 59.55 C 318.28 99.34 318.23 139.12 318.24 178.91 C 296.13 164.39 273.92 150.00 252.23 134.87 C 264.01 121.15 276.13 107.72 287.83 93.94 Z" />
<path fill="#ffffff" d=" M 322.02 59.16 C 344.98 84.04 367.23 109.57 389.72 134.87 C 380.71 141.29 371.25 147.01 362.05 153.13 C 348.67 161.65 335.62 170.71 322.01 178.86 C 321.99 138.96 321.98 99.06 322.02 59.16 Z" />
<path fill="#000000" d=" M 232.25 230.40 C 235.08 226.04 240.79 223.33 245.92 224.81 C 248.70 225.50 251.24 226.89 253.81 228.15 C 252.80 230.03 251.72 231.88 250.38 233.54 C 247.48 232.64 243.79 230.70 241.13 233.14 C 238.26 235.10 238.30 238.88 237.98 241.97 C 241.95 242.03 245.92 241.95 249.89 242.08 C 249.95 244.35 249.96 246.62 249.93 248.90 C 246.17 249.04 242.40 249.03 238.64 249.06 C 237.82 260.74 238.41 272.49 238.15 284.20 C 235.43 284.49 232.72 284.81 230.01 285.09 C 229.99 273.08 230.00 261.08 230.00 249.07 C 228.17 248.66 225.31 249.82 224.38 247.66 C 224.05 246.19 224.08 244.65 224.44 243.20 C 225.45 241.26 228.14 242.30 229.92 241.89 C 229.96 237.98 230.12 233.82 232.25 230.40 Z" />
<path fill="#000000" d=" M 79.97 230.76 C 88.01 227.19 97.43 227.08 105.65 230.15 C 109.18 231.63 112.60 233.75 114.80 236.97 C 113.36 238.97 112.31 242.64 109.20 242.21 C 106.43 241.36 104.48 238.88 101.70 237.99 C 98.94 236.75 95.87 236.99 92.93 236.97 C 85.61 236.47 78.63 241.17 75.47 247.65 C 73.25 251.03 74.05 255.23 73.98 259.04 C 74.09 265.28 78.82 270.14 83.49 273.68 C 91.35 278.13 102.26 276.54 108.28 269.67 C 110.40 271.16 112.52 272.81 113.97 275.01 C 114.61 276.41 112.84 277.19 112.10 278.08 C 108.80 280.61 105.24 283.21 101.07 283.98 C 95.44 284.30 89.76 284.39 84.15 283.86 C 77.52 282.10 71.81 277.39 68.30 271.55 C 63.47 263.52 63.19 253.19 66.74 244.63 C 69.53 238.78 74.17 233.71 79.97 230.76 Z" />
<path fill="#000000" d=" M 531.29 229.02 C 535.04 228.99 538.80 229.00 542.56 229.00 C 546.42 235.08 550.32 241.16 554.58 246.97 C 554.84 246.98 555.36 246.99 555.62 246.99 C 560.03 241.31 563.72 235.11 567.71 229.12 C 571.39 228.95 575.09 229.00 578.76 229.42 C 573.40 238.50 567.21 247.06 561.53 255.93 C 567.68 265.51 574.42 274.70 580.41 284.39 C 576.79 285.17 573.07 285.02 569.39 285.00 C 564.91 277.92 560.40 270.84 555.54 264.01 C 555.32 264.02 554.88 264.03 554.66 264.04 C 549.73 270.82 545.39 278.02 540.77 285.01 C 537.24 285.04 533.70 285.02 530.20 284.54 C 535.30 275.99 541.17 267.93 546.43 259.47 C 547.24 258.04 548.91 256.31 547.78 254.60 C 542.49 245.94 536.61 237.66 531.29 229.02 Z" />
<path fill="#000000" d=" M 138.48 242.73 C 145.14 241.55 152.97 241.92 158.03 247.00 C 166.90 254.10 168.20 268.30 161.01 277.02 C 155.88 283.88 146.50 285.78 138.45 284.32 C 129.15 283.13 122.09 274.16 121.87 265.00 C 120.65 254.82 127.97 243.90 138.48 242.73 Z" />
<path fill="#000000" d=" M 176.11 242.00 C 179.07 242.00 182.03 242.00 185.00 242.00 C 184.99 244.52 185.00 247.04 185.00 249.56 C 188.26 246.66 191.45 243.04 196.05 242.47 C 202.81 241.01 211.83 243.47 213.81 250.92 C 215.56 262.20 214.84 273.66 215.00 285.02 C 212.30 284.98 209.43 285.32 206.97 283.97 C 206.98 276.60 207.07 269.23 206.89 261.87 C 206.55 258.07 206.07 253.57 202.65 251.20 C 199.16 249.14 194.57 249.12 190.94 250.82 C 186.85 252.86 185.08 257.60 185.02 261.93 C 184.95 269.62 185.03 277.31 185.00 285.00 C 182.05 285.00 179.11 285.02 176.18 284.90 C 176.12 270.60 176.25 256.30 176.11 242.00 Z" />
<path fill="#000000" d=" M 257.43 254.20 C 260.40 248.23 266.16 243.28 272.95 242.52 C 280.55 241.20 289.59 243.17 294.22 249.83 C 297.62 254.84 297.60 261.16 298.06 266.98 C 287.02 267.12 275.98 266.78 264.96 267.18 C 263.87 272.55 269.25 275.84 273.62 277.24 C 279.56 279.73 285.49 276.02 290.52 273.18 C 291.96 275.00 293.44 276.78 294.95 278.55 C 291.34 281.41 287.22 283.77 282.56 284.29 C 274.10 286.09 263.77 283.58 259.21 275.67 C 255.59 269.20 255.70 261.22 257.43 254.20 Z" />
<path fill="#000000" d=" M 308.01 241.89 C 310.69 242.15 313.35 242.52 316.00 242.98 C 316.08 245.25 316.09 247.56 316.87 249.73 C 320.45 245.89 324.76 242.39 330.18 241.81 C 330.70 244.51 330.39 247.24 330.03 249.93 C 326.90 250.97 323.39 251.47 321.02 253.99 C 317.31 257.28 316.96 262.54 316.76 267.16 C 316.69 272.85 316.31 278.52 316.15 284.20 C 313.43 284.49 310.72 284.81 308.00 285.09 C 308.00 270.69 307.99 256.29 308.01 241.89 Z" />
<path fill="#000000" d=" M 350.48 243.34 C 358.24 241.29 367.40 241.81 373.65 247.36 C 378.36 252.67 379.10 260.20 379.02 267.00 C 368.04 267.12 357.04 266.75 346.06 267.21 C 345.12 271.09 348.77 273.72 351.48 275.73 C 357.63 279.92 366.09 277.86 371.20 272.97 C 372.88 274.69 374.54 276.43 376.20 278.18 C 370.47 283.88 361.99 285.64 354.19 284.34 C 347.29 283.71 340.96 278.92 338.82 272.26 C 336.78 265.70 336.60 258.15 339.88 251.95 C 342.03 247.76 346.06 244.78 350.48 243.34 Z" />
<path fill="#000000" d=" M 389.00 242.00 C 391.83 242.39 395.52 240.97 397.72 243.24 C 398.05 245.26 397.93 247.32 398.00 249.37 C 403.24 242.57 413.13 240.00 420.85 243.93 C 424.60 245.82 426.70 249.88 427.07 253.95 C 428.37 264.25 427.93 274.64 427.99 285.00 C 425.06 285.01 422.13 285.01 419.20 284.93 C 419.09 276.66 419.25 268.38 419.14 260.11 C 419.07 256.25 417.74 251.28 413.47 250.17 C 406.84 247.70 398.27 252.56 398.05 259.90 C 397.74 268.26 398.23 276.63 397.65 284.99 C 394.77 285.00 391.90 285.00 389.03 284.97 C 388.96 270.65 389.02 256.32 389.00 242.00 Z" />
<path fill="#000000" d=" M 455.44 242.66 C 462.84 241.45 471.34 242.50 476.89 248.02 C 475.36 250.10 473.76 252.14 472.24 254.22 C 468.14 251.89 463.83 249.15 458.87 249.98 C 449.73 250.36 443.82 261.55 448.31 269.45 C 451.11 273.64 455.55 278.01 461.06 277.04 C 465.50 277.52 468.96 274.33 472.42 272.10 C 474.20 273.97 476.00 275.82 477.81 277.68 C 472.45 281.91 465.94 285.11 458.99 285.04 C 453.31 284.72 447.57 282.42 443.75 278.12 C 436.97 270.48 436.61 257.94 443.02 249.97 C 446.06 246.13 450.52 243.24 455.44 242.66 Z" />
<path fill="#000000" d=" M 494.04 245.08 C 502.62 240.28 514.68 240.97 521.61 248.38 C 526.16 253.40 526.00 260.65 526.01 266.99 C 516.31 267.02 506.60 266.96 496.90 267.03 C 495.37 266.88 493.98 267.47 492.65 268.11 C 494.76 275.23 503.17 279.68 510.26 277.41 C 513.34 276.75 515.89 274.87 518.38 273.05 C 519.92 274.66 521.43 276.30 522.87 278.02 C 519.16 283.47 512.10 284.57 506.01 284.92 C 501.24 284.56 496.11 283.90 492.26 280.78 C 481.11 272.22 482.00 252.45 494.04 245.08 Z" />
<path fill="#ffffff" d=" M 264.51 260.01 C 264.92 251.45 276.15 246.50 283.21 250.78 C 286.90 252.34 288.71 256.27 289.22 260.04 C 280.98 259.99 272.74 259.98 264.51 260.01 Z" />
<path fill="#ffffff" d=" M 345.77 259.95 C 346.01 252.08 356.00 246.95 362.91 250.00 C 367.15 251.32 370.29 255.49 370.23 259.97 C 362.08 260.01 353.92 260.04 345.77 259.95 Z" />
<path fill="#ffffff" d=" M 500.40 250.19 C 507.27 246.40 517.80 251.78 517.41 260.03 C 509.20 259.92 500.98 260.11 492.78 259.94 C 493.16 255.52 496.42 251.87 500.40 250.19 Z" />
<path fill="#ffffff" d=" M 139.39 250.18 C 146.15 247.81 154.01 251.92 156.40 258.56 C 158.24 264.23 156.76 271.20 151.59 274.65 C 145.04 279.87 133.92 276.92 131.22 268.87 C 128.04 261.81 131.84 252.46 139.39 250.18 Z" />
</svg>
